<svg id="Capa_1" data-name="Capa 1" xmlns="http://www.w3.org/2000/svg" viewBox="0 0 160 160"><defs><style>.cls-1,.cls-2{fill:#cd1528;}.cls-2{font-size:2.61px;font-family:SoleSans-BookExtraCondensedItalic, Sole Sans ExtraCondensed;font-style:italic;letter-spacing:0.09em;}.cls-3{letter-spacing:0.08em;}.cls-4{letter-spacing:0.08em;}.cls-5{letter-spacing:0.08em;}.cls-6{letter-spacing:0.05em;}.cls-7{letter-spacing:0.08em;}.cls-8{letter-spacing:0.08em;}.cls-9{letter-spacing:0.08em;}.cls-10{letter-spacing:0.06em;}</style></defs><title>Ai Close UpMesa de trabajo 7lo</title><path class="cls-1" d="M80.7,43H40.52a27.13,27.13,0,0,0-3.12-.07c-3.28.4-6,1.72-7.49,4.91a10.13,10.13,0,0,0-.86,4.33q0,22.23,0,44.46a9.8,9.8,0,0,0,1.32,5.15A7.72,7.72,0,0,0,35,105.26a18.06,18.06,0,0,0,3.73.48,1,1,0,0,1,1.06,1,20.47,20.47,0,0,1,0,2.35,1.05,1.05,0,0,1-1.09,1,16.86,16.86,0,0,1-3.1-.12,13.24,13.24,0,0,1-10.34-8.76,10.79,10.79,0,0,1-.61-3.48c0-3.8,0-7.59,0-11.39,0-7.75.06-15.5.07-23.25q0-6.33-.08-12.67a8.33,8.33,0,0,1,.65-3.21,13.56,13.56,0,0,1,5-6.36,11.06,11.06,0,0,1,6.41-2.21H81.93c2.34,0,4.68-.06,7,0l24.23,0c2.79,0,5.57-.07,8.35-.06a16.51,16.51,0,0,1,4.53.57,9.75,9.75,0,0,1,3.21,1.55,16.08,16.08,0,0,1,4.06,4,11.42,11.42,0,0,1,1.69,4.8,57.56,57.56,0,0,1,.33,8.2q0,19.56,0,39.14a13.49,13.49,0,0,1-1.49,6.47,12.44,12.44,0,0,1-5.24,5.24,14.49,14.49,0,0,1-6.67,1.64,4,4,0,0,1-.6,0,1.18,1.18,0,0,1-1.16-1.35v-2.06a1,1,0,0,1,.95-1c.9-.09,1.8-.13,2.68-.27a8.07,8.07,0,0,0,4.62-2.24,9,9,0,0,0,2-3.21c.83-2.16.67-4.4.61-6.64,0-1.49,0-3,0-4.49q0-18.91,0-37.82a6,6,0,0,0-.7-2.82,9.9,9.9,0,0,0-4-4.28,8.46,8.46,0,0,0-4.12-1Z"/><path class="cls-1" d="M102.52,89.85V65.11a7.81,7.81,0,0,1,.76-3.65,5.23,5.23,0,0,1,3.38-2.8,6.75,6.75,0,0,1,5.08.48,5,5,0,0,1,2.61,3.38,9.51,9.51,0,0,1,.27,2.19c0,5.68,0,11.36,0,17q0,10.2,0,20.38c0,2.64.07,5.28.06,7.92,0,1.9,0,3.8-.16,5.69a5.73,5.73,0,0,1-5.6,5.37,6,6,0,0,1-6.41-6.29Z"/><path class="cls-1" d="M64.4,97.38c0-5.45,0-10.91,0-16.36a17.36,17.36,0,0,1,.2-3.06,4.75,4.75,0,0,1,2.53-3.62,8.5,8.5,0,0,1,2.44-.73,7.13,7.13,0,0,1,3.54.35,5,5,0,0,1,2.6,2.43,6.86,6.86,0,0,1,.79,3.42q0,3.78,0,7.58c0,4.26.06,8.53,0,12.79,0,5,0,10.07-.09,15.11A5.85,5.85,0,0,1,72.61,121,6,6,0,0,1,66,119.31a6.69,6.69,0,0,1-1.53-4.42V97.38Z"/><path class="cls-1" d="M95.53,101.91c0,4.31,0,8.62,0,12.93a6.55,6.55,0,0,1-1.82,4.75,5.69,5.69,0,0,1-5.33,1.66,6.08,6.08,0,0,1-4.94-6.08q-.08-12.3-.06-24.61a12,12,0,0,1,.29-3.48,5.94,5.94,0,0,1,6.8-4.4A5.26,5.26,0,0,1,95,86.31a8.58,8.58,0,0,1,.48,2.8C95.55,93.38,95.53,97.65,95.53,101.91Z"/><path class="cls-1" d="M57.39,108.23c0,2.3,0,4.6,0,6.89a6.18,6.18,0,0,1-2.12,4.78,5.74,5.74,0,0,1-5.07,1.34,5.91,5.91,0,0,1-4.46-3.73,6.51,6.51,0,0,1-.4-1.91c-.09-1.1-.09-2.2-.11-3.29,0-1.59-.06-3.17-.06-4.75s0-3.31.09-5a17.33,17.33,0,0,1,.34-3.22A4.87,4.87,0,0,1,48.49,96a7,7,0,0,1,3.83-.61,5.42,5.42,0,0,1,4.25,2.89,6.22,6.22,0,0,1,.82,3.1Z"/><path class="cls-1" d="M74.51,55.46c-.1.47-.2.91-.3,1.35-.21,1-.43,2-.64,3a1.76,1.76,0,0,0,0,1,1.38,1.38,0,0,0,1.31.94c1,0,2,0,3.06,0a2.29,2.29,0,0,0,2.15-1.84c.21-.77.35-1.56.53-2.35.11-.5.22-1,.33-1.54l-.2,0c-.51,0-1,0-1.54-.05-.13,0-.17,0-.2.16-.22,1-.44,2-.68,2.95a4.71,4.71,0,0,1-.32.86,1.3,1.3,0,0,1-1.13.75,4.93,4.93,0,0,1-.86,0A.6.6,0,0,1,75.5,60a9.54,9.54,0,0,1,.2-1.21c.34-1.52.7-3,1-4.53a.31.31,0,0,1,.17-.23,28.15,28.15,0,0,1,7.75-2.72A15.58,15.58,0,0,1,88.21,51a6.86,6.86,0,0,1,2.6.56,2.91,2.91,0,0,1,1.68,1.75,3.09,3.09,0,0,1-.12,2.14,8,8,0,0,1-1.53,2.42,18.39,18.39,0,0,1-4,3.3.08.08,0,0,1-.07,0L87,61a2.84,2.84,0,0,0,.63-1.2c.16-.67.32-1.35.45-2a2.22,2.22,0,0,0,0-.68A1.27,1.27,0,0,0,86.87,56a3.93,3.93,0,0,0-.69-.06H82c-.15,0-.2.06-.23.19q-.92,4-1.85,8.06a.23.23,0,0,1-.18.2,22.5,22.5,0,0,1-4,.8A10.18,10.18,0,0,1,72,65a5.7,5.7,0,0,1-1.21-.46,2.72,2.72,0,0,1-1.4-3.29A6.64,6.64,0,0,1,70.62,59,16.45,16.45,0,0,1,74,55.81Zm-1.7,4.7v-.81H70.45c0,.23,0,.45,0,.66s0,.16.16.16h2.2Z"/><path class="cls-1" d="M67.22,61c-.07.29-.14.56-.22.82a.16.16,0,0,1-.13.09h-.39c-1.1,0-2.2,0-3.29,0a2.69,2.69,0,0,1-.69-.11.94.94,0,0,1-.73-1.22c.18-.76.38-1.52.61-2.27A1.72,1.72,0,0,1,63.9,57.1a7.46,7.46,0,0,1,.95-.05c.6,0,1.2,0,1.79,0a2.81,2.81,0,0,1,.75.17.82.82,0,0,1,.55,1,4.21,4.21,0,0,1-.12.48,1.71,1.71,0,0,1-1.38,1.18,6,6,0,0,1-1,.12c-.39,0-.78,0-1.17,0a1.47,1.47,0,0,0-.46.07.64.64,0,0,0-.27.19.4.4,0,0,0-.1.45c.06.16.22.19.36.22h3.46Zm-3.46-1.87c.59,0,1.17,0,1.75,0s.65-.16.77-.64c.08-.31,0-.49-.34-.5-.47,0-1,0-1.42,0a.56.56,0,0,0-.53.34C63.9,58.59,63.83,58.87,63.76,59.14Z"/><path class="cls-1" d="M52.78,61.89a10.59,10.59,0,0,1-1.38,0,1,1,0,0,1-1-1.38,15.93,15.93,0,0,1,.5-1.92A2.11,2.11,0,0,1,53,57.05c.84,0,1.68,0,2.52,0a.91.91,0,0,1,.95,1,6.2,6.2,0,0,1-.19,1.13,10.42,10.42,0,0,1-.35,1.21,2.12,2.12,0,0,1-2.1,1.49H52.78ZM53,61v0h.21a1.18,1.18,0,0,0,1.15-.78,14.62,14.62,0,0,0,.39-1.48A.55.55,0,0,0,54.3,58a2.69,2.69,0,0,0-.8,0,1.13,1.13,0,0,0-1,.81c-.14.45-.26.91-.37,1.37a.6.6,0,0,0,.54.8C52.75,61,52.89,61,53,61Z"/><path class="cls-1" d="M55.7,61.91c.08-.28.15-.54.22-.81,0-.11.09-.09.16-.09h3.21a1,1,0,0,0,.34-.06.78.78,0,0,0,.46-.84.34.34,0,0,0-.19-.2,1.09,1.09,0,0,0-.4-.07c-.57,0-1.15,0-1.72,0a1.51,1.51,0,0,1-.52-.11.89.89,0,0,1-.65-1.17A1.73,1.73,0,0,1,58,57.17a3.91,3.91,0,0,1,1-.12h3.57c-.07.29-.14.57-.22.84a.22.22,0,0,1-.16.07h-3a2.05,2.05,0,0,0-.49.06.56.56,0,0,0-.44.48.28.28,0,0,0,.19.34,1.4,1.4,0,0,0,.4.07c.58,0,1.15,0,1.72,0a1.81,1.81,0,0,1,.61.14.85.85,0,0,1,.59,1.08c0,.16-.07.31-.12.46a1.77,1.77,0,0,1-1.43,1.19,4.12,4.12,0,0,1-.86.1H55.7Z"/><path class="cls-1" d="M47.2,61c-.08.3-.15.58-.23.85,0,0-.11.06-.16.06H44.15a3.39,3.39,0,0,1-.64-.05,1.56,1.56,0,0,1-1.46-1.69,5.48,5.48,0,0,1,1.37-3.78,3.14,3.14,0,0,1,2.32-1c1,0,1.93,0,2.89,0h.06c-.07.29-.14.57-.23.84,0,0-.1.06-.15.06-.68,0-1.36,0-2,0a2,2,0,0,0-1.89,1.07,5.43,5.43,0,0,0-.69,2.32,2.17,2.17,0,0,0,0,.44,1,1,0,0,0,1,.85H47.2Z"/><path class="cls-1" d="M50.1,61l-.21.81s-.06.08-.09.08a9.85,9.85,0,0,1-1.44-.06,1,1,0,0,1-.87-1.28c.08-.46.2-.91.32-1.36.32-1.22.65-2.44,1-3.66a.57.57,0,0,1,0-.14h1.6c0,.21-.1.41-.16.61-.35,1.34-.71,2.68-1.07,4,0,.06,0,.12,0,.18a.58.58,0,0,0,.44.72C49.76,61,49.92,61,50.1,61Z"/><path class="cls-1" d="M82.65,60.68l.84-3.6c.62,0,1.24,0,1.85.06s.79.45.67,1-.22,1-.34,1.47a1.28,1.28,0,0,1-1.22,1.06C83.86,60.72,83.26,60.68,82.65,60.68Z"/><path class="cls-1" d="M66.89,65.79l0,.21H42.51c0-.2,0-.21.2-.21H66.89Z"/><path class="cls-1" d="M82,63.63c.1-.45.2-.87.3-1.29,0-.17,0-.38.14-.47s.32,0,.48,0h1.69a3.78,3.78,0,0,0,1.53-.2A25.06,25.06,0,0,1,82,63.63Z"/><text class="cls-2" transform="translate(42.65 65) scale(1.2 1)">I<tspan class="cls-3" x="0.69" y="0">NT</tspan><tspan class="cls-4" x="3.07" y="0">E</tspan><tspan class="cls-5" x="4.15" y="0">RN</tspan><tspan class="cls-6" x="6.66" y="0">A</tspan><tspan class="cls-7" x="7.79" y="0">T</tspan><tspan class="cls-8" x="8.86" y="0">IO</tspan><tspan class="cls-9" x="10.9" y="0">NA</tspan><tspan class="cls-10" x="13.42" y="0">L</tspan></text></svg>